<?xml version="1.0" encoding="utf-8"?>
<!-- Generator: Adobe Illustrator 26.0.1, SVG Export Plug-In . SVG Version: 6.00 Build 0)  -->
<svg version="1.1" id="Layer_1" xmlns="http://www.w3.org/2000/svg" xmlns:xlink="http://www.w3.org/1999/xlink" x="0px" y="0px"
	 viewBox="0 0 266 73" style="enable-background:new 0 0 266 73;" xml:space="preserve">
<style type="text/css">
	.st0{fill:#0BC3DB;}
	.st1{fill:#FFFFFF;}
</style>
<g>
	<path class="st0" d="M44.4,14.8c1,0,1.5,0.5,1.5,1.4v6.4c0,0.9-0.5,1.4-1.5,1.4H17c-4.7,0-5.9,1.3-5.9,6.2v7.6
		c0,4.9,1.1,6.2,5.9,6.2h17.4c1.6,0,2.2-0.7,2.2-2.5v-3.2c0-0.5-0.2-0.8-0.7-0.8H21.3c-1,0-1.4-0.5-1.4-1.4v-4.9
		c0-0.9,0.4-1.4,1.4-1.4h22.8c1.1,0,1.6,0.5,1.6,1.6v13.3c0,6.1-2.5,8.4-6.9,8.4H16.7C5.5,53,1.2,49.1,1.2,38.6v-9.4
		c0-10.5,4.3-14.4,15.4-14.4H44.4z"/>
	<path class="st1" d="M61.8,42.6c1.4,0,2,0.6,2,1.9v2.4c0,1.3-0.2,1.8-1.3,2.1l-11.1,4.9c-0.2,0.1-0.2,0.2-0.2,0.3
		c0,0.2,0.1,0.3,0.2,0.3h11.6c0.4,0,0.6,0.2,0.6,0.6v2.5c0,0.4-0.2,0.6-0.6,0.6H48.8c-1.4,0-2-0.6-2-1.9v-2.4c0-1.3,0.2-1.7,1.2-2.1
		l11-4.9c0.2-0.1,0.2-0.2,0.2-0.3c0-0.2-0.1-0.3-0.2-0.3H47.5c-0.4,0-0.6-0.2-0.6-0.6v-2.5c0-0.4,0.2-0.6,0.6-0.6H61.8z"/>
	<path class="st0" d="M88.9,53.6c-8.1,0-14-5.4-14-13.4c0-8.2,6-13.4,13.8-13.4c4,0,7.7,1.3,9.8,3.4l-3.9,4.4
		c-1.2-1.4-3.2-2.4-5.7-2.4c-4.3,0-7.5,3.4-7.5,8c0,4.7,2.8,8,7.8,8c1.4,0,2.8-0.2,3.9-0.7v-4.6h-4.9v-5h10.5v13.5
		C96.3,52.7,92.8,53.6,88.9,53.6z"/>
	<path class="st0" d="M121.2,45.6h-13c0.2,2,2.2,3.4,4.3,3.4c1.9,0,3.2-0.8,4-1.9l4.1,2.6c-1.7,2.4-4.5,3.8-8.1,3.8
		c-5.4,0-9.9-3.4-9.9-9.5c0-5.9,4.2-9.6,9.7-9.6c5.3,0,9,3.6,9,9.8C121.3,44.7,121.3,45.2,121.2,45.6z M115.8,42
		c0-1.9-1.2-3.4-3.5-3.4c-2.3,0-3.9,1.6-4.1,3.4H115.8z"/>
	<path class="st0" d="M136.7,53v-9.8c0-2-0.5-3.8-2.7-3.8c-2.1,0-3.2,1.8-3.2,3.9V53h-5.9V35.1h5.7v2.5h0.1c0.8-1.6,2.9-3,5.4-3
		c4.8,0,6.6,3.7,6.6,7.3V53H136.7z"/>
	<path class="st0" d="M146.2,53v-5.3l12.1-14.9h-11.8v-5.2h19.5v4.9l-12.4,15.2h12.7V53H146.2z"/>
	<path class="st1" d="M189.5,53h-10.2V27.5h10.2c4,0,8.7,1.4,8.7,6.6c0,2.8-1.7,4.7-4.2,5.5v0.1c2.9,0.5,5.2,2.6,5.2,5.9
		C199.2,51.1,194.3,53,189.5,53z M188.3,32.4h-3v5.3h3.3c2.3,0,3.6-1,3.6-2.8C192.2,33.2,190.9,32.4,188.3,32.4z M188.7,42.2h-3.4
		V48h3.5c1.9,0,4.3-0.5,4.3-3C193,42.9,191.3,42.2,188.7,42.2z"/>
	<path class="st1" d="M202.7,37.5c2.1-2,5.1-3,8-3c6,0,8.2,3,8.2,9.5v9h-5.4v-1.9h-0.1c-0.9,1.5-3,2.3-5.1,2.3
		c-2.8,0-6.5-1.4-6.5-5.6c0-5.2,6.3-6,11.5-6v-0.3c0-1.8-1.4-2.6-3.2-2.6c-1.7,0-3.3,0.8-4.4,1.8L202.7,37.5z M213.5,45.2h-0.8
		c-2.6,0-5.5,0.3-5.5,2.4c0,1.4,1.4,1.8,2.6,1.8c2.4,0,3.7-1.4,3.7-3.7V45.2z"/>
	<path class="st1" d="M235.1,53v-9.8c0-2-0.5-3.8-2.7-3.8c-2.1,0-3.2,1.8-3.2,3.9V53h-5.9V35.1h5.7v2.5h0.1c0.8-1.6,2.9-3,5.4-3
		c4.8,0,6.6,3.7,6.6,7.3V53H235.1z"/>
	<path class="st1" d="M264.8,53h-7.3l-5.9-8.6h-0.1V53h-5.9V25.8h5.9v16.6h0.1l5.7-7.3h7.2l-6.9,8.1L264.8,53z"/>
</g>
</svg>
